<svg xmlns="http://www.w3.org/2000/svg" viewBox="0 0 1849.4750000000004 940" width="1849.4750000000004" height="940" style="--bg:#1a1b26;--fg:#a9b1d6;--line:#3d59a1;--accent:#7aa2f7;--muted:#565f89;background:var(--bg)">
<style>
  @import url('https://fonts.googleapis.com/css2?family=Inter:wght@400;500;600;700&amp;display=swap');
  text { font-family: 'Inter', system-ui, sans-serif; }
  svg {
    /* Derived from --bg and --fg (overridable via --line, --accent, etc.) */
    --_text:          var(--fg);
    --_text-sec:      var(--muted, color-mix(in srgb, var(--fg) 60%, var(--bg)));
    --_text-muted:    var(--muted, color-mix(in srgb, var(--fg) 40%, var(--bg)));
    --_text-faint:    color-mix(in srgb, var(--fg) 25%, var(--bg));
    --_line:          var(--line, color-mix(in srgb, var(--fg) 30%, var(--bg)));
    --_arrow:         var(--accent, color-mix(in srgb, var(--fg) 50%, var(--bg)));
    --_node-fill:     var(--surface, color-mix(in srgb, var(--fg) 3%, var(--bg)));
    --_node-stroke:   var(--border, color-mix(in srgb, var(--fg) 20%, var(--bg)));
    --_group-fill:    var(--bg);
    --_group-hdr:     color-mix(in srgb, var(--fg) 5%, var(--bg));
    --_inner-stroke:  color-mix(in srgb, var(--fg) 12%, var(--bg));
    --_key-badge:     color-mix(in srgb, var(--fg) 10%, var(--bg));
  }
</style>
<defs>
  <marker id="arrowhead" markerWidth="8" markerHeight="4.8" refX="8" refY="2.4" orient="auto">
    <polygon points="0 0, 8 2.4, 0 4.8" fill="var(--_arrow)" />
  </marker>
  <marker id="arrowhead-start" markerWidth="8" markerHeight="4.8" refX="0" refY="2.4" orient="auto-start-reverse">
    <polygon points="8 0, 0 2.4, 8 4.8" fill="var(--_arrow)" />
  </marker>
</defs>
<rect x="129.75" y="40" width="333.4000000000001" height="388" rx="0" ry="0" fill="var(--_group-fill)" stroke="var(--_node-stroke)" stroke-width="1" />
<rect x="129.75" y="40" width="333.4000000000001" height="28" rx="0" ry="0" fill="var(--_group-hdr)" stroke="var(--_node-stroke)" stroke-width="1" />
<text x="141.75" y="54" dy="0.35em" font-size="12" font-weight="600" fill="var(--_text-sec)">&quot;Navigation &amp; Layout&quot;</text>
<rect x="483.15000000000015" y="276" width="937.1750000000001" height="624" rx="0" ry="0" fill="var(--_group-fill)" stroke="var(--_node-stroke)" stroke-width="1" />
<rect x="483.15000000000015" y="276" width="937.1750000000001" height="28" rx="0" ry="0" fill="var(--_group-hdr)" stroke="var(--_node-stroke)" stroke-width="1" />
<text x="495.15000000000015" y="290" dy="0.35em" font-size="12" font-weight="600" fill="var(--_text-sec)">&quot;Data Management View&quot;</text>
<rect x="653.4250000000002" y="768" width="746.9" height="112" rx="0" ry="0" fill="var(--_group-fill)" stroke="var(--_node-stroke)" stroke-width="1" />
<rect x="653.4250000000002" y="768" width="746.9" height="28" rx="0" ry="0" fill="var(--_group-hdr)" stroke="var(--_node-stroke)" stroke-width="1" />
<text x="665.4250000000002" y="782" dy="0.35em" font-size="12" font-weight="600" fill="var(--_text-sec)">&quot;Modals &amp; Drawers&quot;</text>
<rect x="1440.3250000000003" y="276" width="369.1500000000001" height="388" rx="0" ry="0" fill="var(--_group-fill)" stroke="var(--_node-stroke)" stroke-width="1" />
<rect x="1440.3250000000003" y="276" width="369.1500000000001" height="28" rx="0" ry="0" fill="var(--_group-hdr)" stroke="var(--_node-stroke)" stroke-width="1" />
<text x="1452.3250000000003" y="290" dy="0.35em" font-size="12" font-weight="600" fill="var(--_text-sec)">&quot;Serial Tool View&quot;</text>
<polyline points="296.45000000000005,152 296.45000000000005,172 275.7249999999999,172 275.7249999999999,352" fill="none" stroke="var(--_line)" stroke-width="0.75" marker-end="url(#arrowhead)" />
<polyline points="296.45000000000005,152 296.45000000000005,370 686.1500000000001,370" fill="none" stroke="var(--_line)" stroke-width="0.75" marker-end="url(#arrowhead)" />
<polyline points="296.45000000000005,152 296.45000000000005,172 379.8000000000002,172 379.8000000000002,370 1462.3250000000003,370" fill="none" stroke="var(--_line)" stroke-width="0.75" marker-end="url(#arrowhead)" />
<polyline points="873.7500000000001,388 873.7500000000001,408 673.0875000000001,408 673.0875000000001,588" fill="none" stroke="var(--_line)" stroke-width="0.75" marker-end="url(#arrowhead)" />
<polyline points="873.7500000000001,388 873.7500000000001,408 1023.3000000000002,408 1023.3000000000002,588" fill="none" stroke="var(--_line)" stroke-width="0.75" marker-end="url(#arrowhead)" />
<polyline points="1023.3000000000002,624 1023.3000000000002,644 841.575,644 841.575,824" fill="none" stroke="var(--_line)" stroke-width="0.75" marker-end="url(#arrowhead)" />
<polyline points="1023.3000000000002,624 1023.3000000000002,644 1205.025,644 1205.025,824" fill="none" stroke="var(--_line)" stroke-width="0.75" marker-end="url(#arrowhead)" />
<polyline points="1624.9000000000003,388 1624.9000000000003,588" fill="none" stroke="var(--_line)" stroke-width="0.75" stroke-dasharray="4 4" marker-end="url(#arrowhead)" />
<rect x="40" y="116" width="67.75" height="36" rx="0" ry="0" fill="var(--_node-fill)" stroke="var(--_node-stroke)" stroke-width="0.75" />
<rect x="151.75000000000003" y="116" width="289.40000000000003" height="36" rx="0" ry="0" fill="var(--_node-fill)" stroke="var(--_node-stroke)" stroke-width="0.75" />
<rect x="152.4749999999999" y="352" width="246.50000000000003" height="36" rx="0" ry="0" fill="var(--_node-fill)" stroke="var(--_node-stroke)" stroke-width="0.75" />
<rect x="686.1500000000001" y="352" width="375.20000000000005" height="36" rx="0" ry="0" fill="var(--_node-fill)" stroke="var(--_node-stroke)" stroke-width="0.75" />
<rect x="524.8125000000001" y="588" width="296.55" height="36" rx="0" ry="0" fill="var(--_node-fill)" stroke="var(--_node-stroke)" stroke-width="0.75" />
<rect x="896.4750000000001" y="588" width="253.65" height="36" rx="0" ry="0" fill="var(--_node-fill)" stroke="var(--_node-stroke)" stroke-width="0.75" />
<rect x="675.4250000000001" y="824" width="332.3" height="36" rx="0" ry="0" fill="var(--_node-fill)" stroke="var(--_node-stroke)" stroke-width="0.75" />
<rect x="1031.7250000000001" y="824" width="346.6" height="36" rx="0" ry="0" fill="var(--_node-fill)" stroke="var(--_node-stroke)" stroke-width="0.75" />
<rect x="1462.3250000000003" y="352" width="325.15000000000003" height="36" rx="0" ry="0" fill="var(--_node-fill)" stroke="var(--_node-stroke)" stroke-width="0.75" />
<rect x="1462.3250000000003" y="588" width="325.15000000000003" height="36" rx="0" ry="0" fill="var(--_node-fill)" stroke="var(--_node-stroke)" stroke-width="0.75" />
<text x="73.875" y="134" text-anchor="middle" dy="0.35em" font-size="13" font-weight="500" fill="var(--_text)">class</text>
<text x="296.45000000000005" y="134" text-anchor="middle" dy="0.35em" font-size="13" font-weight="500" fill="var(--_text)">&quot;DefaultLayout.vue&lt;br/&gt;(Main Shell)&quot;</text>
<text x="275.7249999999999" y="370" text-anchor="middle" dy="0.35em" font-size="13" font-weight="500" fill="var(--_text)">&quot;Sidebar.vue&lt;br/&gt;(Navigation)&quot;</text>
<text x="873.7500000000001" y="370" text-anchor="middle" dy="0.35em" font-size="13" font-weight="500" fill="var(--_text)">&quot;DataManagementPage.vue&lt;br/&gt;(Main Feature Page)&quot;</text>
<text x="673.0875000000001" y="606" text-anchor="middle" dy="0.35em" font-size="13" font-weight="500" fill="var(--_text)">&quot;ActionArea.vue&lt;br/&gt;(Stats &amp; Upload)&quot;</text>
<text x="1023.3000000000002" y="606" text-anchor="middle" dy="0.35em" font-size="13" font-weight="500" fill="var(--_text)">&quot;DataTable.vue&lt;br/&gt;(Core List)&quot;</text>
<text x="841.575" y="842" text-anchor="middle" dy="0.35em" font-size="13" font-weight="500" fill="var(--_text)">&quot;FilePreviewDrawer.vue&lt;br/&gt;(Side Preview)&quot;</text>
<text x="1205.025" y="842" text-anchor="middle" dy="0.35em" font-size="13" font-weight="500" fill="var(--_text)">&quot;BatchEditModal.vue&lt;br/&gt;(Multi-select Edit)&quot;</text>
<text x="1624.9000000000003" y="370" text-anchor="middle" dy="0.35em" font-size="13" font-weight="500" fill="var(--_text)">&quot;SerialToolPage.vue&lt;br/&gt;(Serial Monitor)&quot;</text>
<text x="1624.9000000000003" y="606" text-anchor="middle" dy="0.35em" font-size="13" font-weight="500" fill="var(--_text)">&quot;serialReader.worker.ts&lt;br/&gt;(Web Worker)&quot;</text>
</svg>